<svg width="24" height="24" viewBox="0 0 24 24" fill="none" xmlns="http://www.w3.org/2000/svg">
    <path d="M8.60705 3.96795C9.93126 4.11576 11.0451 4.67497 12.0112 5.57379C12.0962 5.49733 12.1745 5.423 12.2569 5.35348C13.4126 4.37786 14.7415 3.8784 16.2563 3.94063C17.4448 3.98945 18.423 4.51534 19.2122 5.38806C20.1113 6.38226 20.5436 7.57659 20.6498 8.9028C20.8102 10.9057 20.0834 12.6165 18.9269 14.186C17.9348 15.5324 16.7338 16.6755 15.426 17.7017C14.4377 18.4772 13.4052 19.1961 12.3915 19.9388C12.1438 20.1203 11.891 20.1147 11.6374 19.9465C9.83333 18.7498 8.11067 17.4488 6.57883 15.9112C5.45661 14.7848 4.47048 13.5539 3.87573 12.0554C3.1794 10.3011 3.1081 8.5353 3.88852 6.78892C4.49189 5.43873 5.47608 4.48402 6.92219 4.06894C7.46734 3.91246 8.02733 3.89405 8.60705 3.96795Z" fill="white"/>
</svg>
