<svg width="512" height="512" viewBox="0 0 512 512" fill="none" xmlns="http://www.w3.org/2000/svg">
<path d="M197.311 116.722C220.216 119.276 239.482 128.938 256.193 144.468C257.664 143.147 259.019 141.863 260.443 140.662C280.433 123.805 303.42 115.175 329.623 116.25C350.181 117.094 367.1 126.18 380.752 141.259C396.303 158.437 403.781 179.073 405.618 201.987C408.392 236.594 395.821 266.152 375.816 293.271C358.656 316.534 337.881 336.284 315.26 354.016C298.166 367.415 280.307 379.835 262.771 392.668C258.487 395.804 254.115 395.706 249.728 392.8C218.523 372.125 188.725 349.645 162.228 323.078C142.817 303.616 125.76 282.348 115.472 256.458C103.427 226.146 102.194 195.637 115.693 165.463C126.13 142.135 143.154 125.639 168.168 118.467C177.597 115.763 187.283 115.445 197.311 116.722Z" fill="white"/>
</svg>

