<svg width="512" height="512" viewBox="0 0 512 512" fill="none" xmlns="http://www.w3.org/2000/svg">
<path d="M169.546 123.273C178.18 120.798 187.16 120.47 196.68 121.683L196.719 121.688L196.757 121.691C218.484 124.114 236.776 133.25 252.789 148.131L256.135 151.24L259.533 148.188C261.143 146.743 262.316 145.622 263.667 144.483C282.781 128.365 304.566 120.226 329.418 121.246C348.451 122.027 364.161 130.384 377.045 144.615C391.723 160.828 398.868 180.356 400.634 202.387C403.281 235.404 391.353 263.787 371.793 290.303C354.974 313.103 334.554 332.54 312.176 350.081C295.166 363.414 277.486 375.704 259.818 388.634C258.375 389.69 257.219 389.998 256.278 390C255.309 390.002 254.068 389.677 252.49 388.632C221.444 368.062 191.943 345.792 165.769 319.548C146.586 300.315 130.052 279.609 120.119 254.612C108.491 225.348 107.394 196.259 120.258 167.505C130.171 145.346 146.126 129.988 169.546 123.273Z" stroke="white" stroke-width="10"/>
</svg>

