<svg width="24" height="24" viewBox="0 0 24 24" fill="none" xmlns="http://www.w3.org/2000/svg">
    <path d="M7.06055 4.54919C7.5259 4.4157 8.01523 4.39684 8.54395 4.46423L8.55176 4.46521C9.75795 4.59989 10.7746 5.10596 11.6709 5.93982L12.0049 6.25134L12.3457 5.94568C12.4444 5.85696 12.5043 5.79888 12.5791 5.73572C13.6471 4.83409 14.8559 4.38327 16.2354 4.43982C17.2711 4.48237 18.1293 4.93513 18.8418 5.72302C19.6536 6.62071 20.0522 7.70473 20.1514 8.94275C20.299 10.7868 19.6364 12.3799 18.5244 13.889C17.5665 15.1891 16.4006 16.3008 15.1172 17.308C14.1374 18.0769 13.1227 18.7831 12.0957 19.5355C12.0418 19.575 12.0177 19.5736 12.0156 19.5736C12.0105 19.5736 11.9791 19.5728 11.9141 19.5297C10.1259 18.3436 8.43229 17.0633 6.93262 15.558C5.83355 14.4547 4.90009 13.2802 4.34082 11.8715C3.68606 10.2218 3.62772 8.59703 4.34473 6.99255C4.89587 5.75936 5.77401 4.91848 7.06055 4.54919Z" stroke="white"/>
</svg>
